<?xml version="1.0" standalone="no"?>
<!DOCTYPE svg PUBLIC "-//W3C//DTD SVG 20010904//EN"
 "http://www.w3.org/TR/2001/REC-SVG-20010904/DTD/svg10.dtd">
<svg version="1.0" xmlns="http://www.w3.org/2000/svg"
 width="700.000000pt" height="700.000000pt" viewBox="0 0 700.000000 700.000000"
 preserveAspectRatio="xMidYMid meet">
<metadata>
Created by potrace 1.11, written by Peter Selinger 2001-2013
</metadata>
<g transform="translate(0.000000,700.000000) scale(0.100000,-0.100000)"
fill="#000000" stroke="none">
<path d="M3338 6965 c-2 -2 -46 -5 -98 -9 -102 -6 -243 -23 -345 -41 -627
-112 -1200 -389 -1680 -810 -134 -118 -318 -307 -396 -410 -13 -16 -26 -32
-29 -35 -40 -37 -212 -291 -295 -435 -49 -85 -175 -337 -175 -351 0 -2 -9 -23
-19 -47 -76 -165 -179 -519 -206 -702 -4 -22 -8 -47 -11 -55 -2 -8 -6 -38 -9
-65 -4 -28 -8 -61 -10 -75 -27 -153 -27 -705 0 -834 2 -12 7 -43 10 -71 32
-293 151 -686 305 -1010 66 -138 243 -438 301 -509 5 -6 34 -45 66 -86 178
-237 423 -481 669 -667 81 -61 277 -194 304 -206 8 -4 38 -20 65 -37 52 -32
348 -180 359 -180 3 0 28 -9 54 -21 74 -33 81 -35 197 -74 120 -40 384 -110
455 -120 25 -3 63 -10 85 -15 22 -5 67 -12 100 -15 33 -4 74 -9 90 -10 312
-36 718 -19 1020 41 11 2 31 6 45 9 171 32 440 116 634 197 1004 419 1766
1304 2025 2353 16 66 33 140 37 165 4 25 8 47 9 50 0 3 4 27 9 53 4 27 9 58
12 70 21 109 28 241 29 487 0 286 -5 356 -41 575 -104 632 -385 1227 -810
1713 -197 225 -535 514 -756 647 -356 214 -616 326 -973 420 -123 33 -359 77
-470 89 -27 3 -77 8 -110 12 -58 6 -442 14 -447 9z m407 -229 c80 -7 147 -14
195 -21 14 -2 48 -7 75 -11 28 -3 56 -9 63 -13 8 -5 -203 -224 -625 -649 -917
-923 -1806 -1812 -1809 -1809 -2 1 -52 196 -112 432 -60 237 -151 594 -203
793 l-93 364 60 58 c65 62 247 211 338 275 164 116 420 259 606 337 180 76
501 174 634 193 22 4 59 10 82 15 22 5 69 12 105 16 35 3 67 8 70 10 4 2 60 6
125 10 66 3 120 7 121 8 5 4 295 -2 368 -8z m747 -150 c367 -121 664 -277 963
-505 128 -98 159 -124 280 -241 339 -325 599 -714 773 -1157 29 -73 52 -134
52 -137 0 -5 -50 8 -390 101 -151 41 -313 85 -360 98 -47 12 -121 32 -165 45
-44 12 -104 28 -132 36 -64 17 -46 12 -618 169 -253 69 -566 155 -695 190
-462 125 -1003 275 -1006 278 -3 3 1155 1167 1162 1167 2 0 64 -20 136 -44z
m-3413 -1042 c11 -43 36 -142 56 -219 20 -77 74 -291 121 -475 47 -184 110
-429 139 -545 29 -115 86 -336 125 -490 39 -154 89 -347 110 -430 40 -154 259
-1018 265 -1045 2 -8 18 -68 35 -134 17 -65 30 -120 28 -122 -5 -5 -103 22
-428 116 -157 45 -298 86 -315 90 -72 19 -798 230 -800 232 -13 18 -97 369
-110 465 -3 21 -7 47 -10 58 -4 22 -12 91 -24 210 -9 83 -7 521 2 565 3 14 8
48 11 75 17 144 29 216 61 350 116 483 325 908 641 1303 36 46 68 81 70 80 2
-2 12 -40 23 -84z m2119 -315 c199 -54 363 -98 477 -130 39 -10 126 -34 195
-53 195 -53 526 -143 625 -171 50 -14 155 -43 234 -65 80 -22 145 -41 146 -43
1 -1 12 -40 25 -87 43 -160 59 -215 115 -415 84 -299 184 -659 210 -755 13
-47 38 -134 55 -194 l31 -109 -55 -56 c-30 -31 -103 -105 -162 -166 -58 -60
-251 -258 -428 -439 -176 -181 -407 -418 -512 -525 -105 -108 -247 -253 -315
-323 l-124 -127 -50 15 c-28 9 -79 24 -115 34 -79 22 -884 254 -1100 317 -85
25 -174 49 -196 55 -30 6 -44 15 -48 31 -4 12 -26 101 -50 197 -25 96 -54 211
-66 255 -12 44 -23 87 -25 95 -7 35 -217 858 -226 886 -5 17 -11 40 -13 51 -3
11 -30 120 -61 242 l-56 222 23 27 c29 34 1271 1282 1276 1282 1 0 87 -23 190
-51z m2103 -575 c90 -25 169 -47 174 -48 6 -2 24 -6 40 -10 17 -5 84 -23 150
-42 66 -18 154 -42 195 -53 41 -11 134 -36 205 -56 72 -20 137 -37 145 -40 44
-11 425 -116 426 -118 2 -2 37 -174 49 -242 3 -16 8 -48 11 -70 2 -22 7 -49 9
-60 19 -96 28 -538 13 -696 -12 -126 -38 -286 -68 -419 -29 -128 -91 -341
-115 -395 -7 -16 -28 -68 -46 -115 -78 -201 -234 -479 -385 -687 -73 -101 -94
-120 -94 -87 0 14 -13 63 -75 279 -8 28 -39 140 -70 250 -30 110 -62 223 -70
250 -12 42 -174 623 -216 775 -17 62 -16 59 -34 120 -9 30 -18 63 -20 73 -4
17 -105 376 -145 517 -20 70 -79 283 -155 555 -25 94 -59 214 -74 268 -16 53
-25 97 -21 97 3 0 80 -21 171 -46z m126 -1865 c24 -84 50 -176 58 -204 22 -78
129 -463 180 -645 25 -91 54 -194 64 -230 11 -36 41 -145 69 -242 l49 -178
-101 -97 c-379 -367 -819 -626 -1326 -782 -145 -44 -369 -92 -505 -107 -27 -3
-61 -7 -75 -10 -47 -7 -245 -17 -345 -17 -205 0 -404 19 -597 55 l-67 13 130
135 c72 74 273 281 447 459 175 178 351 359 392 401 41 43 203 209 360 370
157 160 337 345 400 410 63 65 250 256 415 425 165 169 320 329 345 355 25 27
49 48 54 46 5 -1 29 -72 53 -157z m-4822 -553 c65 -18 844 -243 1225 -353 162
-47 324 -93 360 -103 98 -27 591 -168 625 -179 37 -12 495 -144 623 -179 50
-14 92 -29 92 -34 0 -5 -78 -89 -174 -186 -95 -97 -261 -267 -368 -377 -108
-110 -244 -249 -302 -308 l-106 -109 -78 25 c-369 116 -758 332 -1077 596
-128 106 -345 327 -448 456 -164 205 -315 448 -422 679 -43 92 -44 98 -23 92
13 -4 46 -13 73 -20z"/>
</g>
</svg>
