<?xml version="1.0" encoding="UTF-8"?>
<svg width="95px" height="95px" viewBox="0 0 95 95" version="1.1" xmlns="http://www.w3.org/2000/svg" xmlns:xlink="http://www.w3.org/1999/xlink">
    <!-- Generator: Sketch 55.1 (78136) - https://sketchapp.com -->
    <title>noun_Aperture_24192</title>
    <desc>Created with Sketch.</desc>
    <g id="Page-1" stroke="none" stroke-width="1" fill="none" fill-rule="evenodd">
        <g id="noun_Aperture_24192" fill="#000000" fill-rule="nonzero">
            <path d="M47.44,0.447 C21.576,0.447 0.535,21.489 0.535,47.353 C0.535,73.216 21.577,94.258 47.44,94.258 C73.302,94.258 94.343,73.216 94.343,47.353 C94.344,21.489 73.303,0.447 47.44,0.447 Z M89.062,33.412 L43.253,20.878 L59.047,5.016 C73.152,8.888 84.435,19.632 89.062,33.412 Z M50.437,73.674 L29.99,67.8 L23.171,41.048 L40.819,23.323 L66.143,30.252 L72.078,51.485 L50.437,73.674 Z M55.606,4.22 L22.308,37.662 L16.778,15.969 C24.698,8.23 35.518,3.447 47.44,3.447 C50.231,3.447 52.959,3.72 55.606,4.22 Z M14.341,18.554 L26.649,66.84 L5.653,60.809 C4.283,56.566 3.535,52.046 3.535,47.353 C3.535,36.34 7.62,26.27 14.341,18.554 Z M6.941,64.299 L48.06,76.111 L35.037,89.462 C22.337,85.715 12.013,76.376 6.941,64.299 Z M47.44,91.258 C44.339,91.258 41.315,90.93 38.394,90.316 L73.011,54.825 L79.34,77.471 C71.331,85.95 59.997,91.258 47.44,91.258 Z M81.699,74.764 L69.516,31.174 L90.052,36.793 C90.891,40.177 91.344,43.712 91.344,47.353 C91.344,57.716 87.727,67.246 81.699,74.764 Z" id="Shape"></path>
        </g>
    </g>
</svg>